<?xml version="1.0" encoding="utf-8"?>
<!-- Generator: Adobe Illustrator 25.2.3, SVG Export Plug-In . SVG Version: 6.00 Build 0)  -->
<svg version="1.1" xmlns="http://www.w3.org/2000/svg" xmlns:xlink="http://www.w3.org/1999/xlink" x="0px" y="0px"
	 viewBox="0 0 1080 1080" style="enable-background:new 0 0 1080 1080;" xml:space="preserve">
<style type="text/css">
	.st0{fill:#EFB68F;}
	.st1{opacity:0.15;fill:#D311A1;}
	.st2{fill:#9E0A89;}
	.st3{fill:#191919;}
	.st4{fill:#D311A1;}
	.st5{fill:#110C0F;}
	.st6{fill:#FFE3CA;}
	.st7{fill:#FFFFFF;}
	.st8{fill:#E8948B;}
	.st9{fill:#DD1092;}
	.st10{fill:#E2A881;}
	.st11{fill:none;}
	.st12{fill:#0B4870;}
	.st13{opacity:0.58;fill:#9E0A89;}
	.st14{opacity:0.57;fill:#D311A1;}
</style>
<g id="Layer_2">
</g>
<g id="Layer_1">
	<path class="st0" d="M593.5,449.6c-3.7,7.1-7.6,13.8-12.1,20.4c-2.3,3.3-4.7,6.5-7.7,9.6c-0.8,0.8-1.6,1.6-2.6,2.3
		c-1,0.7-2.1,1.6-4.1,2.1c-0.2,0.1-0.5,0.1-0.8,0.1s-0.6,0.1-0.9,0.1c-0.7-0.1-1.4-0.1-2.1-0.4c-0.7-0.3-1.3-0.7-1.8-1.1
		s-0.8-0.9-1.1-1.3c-1.1-1.7-1.2-3-1.4-4.3c-0.3-2.4-0.3-4.5-0.1-6.6c0.1-2.1,0.4-4.1,0.6-6c0.6-3.9,1.3-7.8,2.2-11.6
		c1.7-7.6,3.7-15.2,5.9-22.6c0.2-0.8,1-1.2,1.8-1c0.7,0.2,1.1,0.9,1,1.6l0,0c-0.5,3.8-1.2,7.6-1.7,11.5c-0.5,3.8-1.1,7.6-1.5,11.4
		s-0.8,7.6-1,11.4c-0.1,1.9-0.2,3.7-0.1,5.5c0,1.8,0.2,3.6,0.5,5c0.1,0.7,0.4,1.3,0.5,1.2c0-0.1-0.1-0.1-0.2-0.3
		c-0.1-0.2-0.3-0.2-0.6-0.4c-0.3-0.1-0.5-0.2-0.7-0.2c-0.1,0-0.1,0-0.2,0c-0.1,0-0.1,0-0.1,0c-0.2,0,0.4-0.3,0.9-0.7
		c0.5-0.4,1.1-1,1.6-1.7c2.2-2.6,4.2-5.7,6.2-8.9c2-3.2,3.9-6.5,5.7-9.8s3.6-6.7,5.4-10v-0.1c1.3-2.4,4.3-3.4,6.7-2.1
		C593.9,444.1,594.8,447.1,593.5,449.6z"/>
	<path class="st0" d="M574.3,412.8c0,0,1.2,27.5,11.1,24.7c9.9-2.8,11.5-11,11.5-11l-1.4-11.9C595.5,414.6,581.9,408.1,574.3,412.8z
		"/>
	<ellipse class="st1" cx="521" cy="675.5" rx="307.1" ry="27.4"/>
	<g>
		<path class="st0" d="M576.5,459.8c0.3-2.6,2.6-5.8,5.4-9.5c0.2-1.3,1.7-3.7,2-4c1.4-1.3,2.9-2.9,5.4-4.5
			c0.3-6.4-6.7-13.7-10.1-17.8c0,0,18.5-16.5,18.1-7c-0.3,6.7,0.3,11.4,8.6,21.1c7,5.6,12,4.9,11.2,11.9
			c-2,10.6-13.7,34.3-11.3,59.8c-3.7,1.6-22.1-12.5-23.5-16.9c0,0-1.9-12.2-1.5-25.7C577.6,467.2,576.3,461.3,576.5,459.8z"/>
		<path class="st2" d="M617.1,534.9c-0.9-22-5.4-27.2-9.9-37c-2.3-5,6.3-38.3,6.3-38.3s-15.7-1.6-31.2,0.5l-6.1-4.1
			c-3,4.6-6.4,13.4-2.1,17.8c0,0,3.7,4.9,1.7,17.8c0,0-2.9,14.1-3.8,24.1c-0.9,21.6,1.6,49.9,3.9,95.8c1,37-7.2,71.7-7.2,71.7
			s6-0.3,22.8,2.4c2.9,0.5,7.4-3.3,10.8-2.4c1.6,0.4,3.6,2.1,5.3,2.6c3.8,1.1,7.3,0.7,14.1,0.5c1.7-0.1,6.6-2.1,8.4-2.2
			c1.1-0.1,5.5,1.6,6.6,1.5c14.8-1.2,26-3.1,26-3.1S617.3,540.9,617.1,534.9z"/>
		<g>
			<g>
				<path class="st3" d="M581.8,415.8l-7.3-2.9c-1.2-2.1,3.7-12.7,15-12.4c10.5,0.3,13.1,5.4,14.7,11.4c1.6,6-4.1,11.4-4.1,11.4
					s-7.6,0.4-6.4-1.8c0.7-1.4-0.3-6.2-2.4-6.1c-1,0.1-1.8,1.6-1.8,1.6L581.8,415.8z"/>
				<path class="st3" d="M597.5,426.4c6.2-0.6,12.7-15.4,8.2-18.9c6.5-6.1-1-15.2-6-13.8c-1-3.3-5.2-4.6-7.9-0.4
					c-3.1-2.9-7.6,5.2-4.5,7.8c-2.1,0.4-1.1,4.4,2.1,6.2C592.5,409.1,597.5,426.4,597.5,426.4z"/>
			</g>
		</g>
		<path class="st4" d="M610.7,440.6c-1.6-0.5-5.1,0.8-8.1,7.6c-2.1,4.8-7.8,16.8-7.8,16.8l3.3-1c0,0,5.8-13.2,8.8-18.2
			C609.8,441,610.7,440.6,610.7,440.6L610.7,440.6z"/>
		<path class="st4" d="M588.7,441.7c-2,0.5-10.9,10.9-12.5,14.2c-1.6,3.3,1.6,1.3,1.6,1.3L588.7,441.7z"/>
	</g>
	<path class="st5" d="M454.3,592.4c0,0,61.5-10.1,63.8,2.7c2.3,12.9-5.4,72.1-5.4,72.1h-14c0,0,5.9-40.9,2.1-46.7
		c-3.8-5.9-20.1,15.8-43.9,12.8c-23.8-3.1-14.1-44.7-14.1-44.7L454.3,592.4z"/>
	<g>
		<g>
			<path class="st6" d="M551,605.8c-1.7-1.2-3.2-2.6-4-3c-0.3-0.2-1.2-0.4-1.5-0.5c-0.8-0.2-2-0.5-2.6-1.1l-2.3-2.5
				c-1.1-1.2-2.5-1.7-3.8-0.6l0,0c-1.4,1.2-0.9,2.9,0.4,4.1l1.6,1.8c1.1,1,1.6,2.3,2.2,3.6c1.2,2.7,3.9,4.7,6.3,6.1
				c1.5,0.9,3.7,0.3,6.6-0.7c1.4-0.5,3.5-1.7,1.7-2.3c-1.5-0.6-6,0.7-8-3.5c-0.1-0.2-0.3-0.7-0.1-0.9c0.6-0.6,1.9,0.7,2.8,1.1
				c1.3,0.6,2.3,0.4,2.6-0.1C553.3,606.8,552.2,606.6,551,605.8z"/>
			<path class="st5" d="M487.5,514.6c0,0,3.7,44.7,17.1,59.8c8.1,9.1,27.8,24.7,32.3,28.3c0.6,0.5,1.4,0.5,2,0.1
				c0.4-0.3,0.8-0.6,1.2-0.9c0.4-0.3,0.8-0.8,1.2-1.3c0.7-0.8,0.6-1.9-0.1-2.7c-5.1-5.6-25.2-27.6-27.6-33.4
				c-2.8-6.7-7.6-45.9-12-51.6C497.2,507.2,488.7,505.9,487.5,514.6z"/>
			<polygon class="st6" points="504.4,588.5 493,508.3 462.2,504.1 446.2,587.9 			"/>
			<path class="st7" d="M505.6,586.4L493,508.3l-30.8-4.2l-16.5,82.5c-0.3,1.5,0.7,3.1,2.2,3.3c5.7,1.1,19.5,3.4,35,3.4
				c11.5,0,18-2.2,21-3.7C505.1,589,505.8,587.7,505.6,586.4z"/>
			<path class="st5" d="M471.8,509c0,5.6-1,11.2-2.9,16.5c-3.8,10.3-9.4,29.9-6,47.1c4.8,24.8,11,34.8,3,40.6s-23.5-3.9-23.9-7.1
				c-0.4-3.2,3-42.7,6.9-59.8s14.8-41.7,14.8-41.7l4.6,0.5C470.3,505.3,471.8,507,471.8,509L471.8,509z"/>
			<path class="st5" d="M484.6,507.2c0,0,5.3,11.5,3.5,28.1c-1.9,16.6-6.2,67,8.9,74.6c4.8,2.4,15.7-8.3,15.7-12.2
				c0-4-3.6-17.2-7.1-29.3c-3.4-12.1-11.8-59.9-11.8-59.9L484.6,507.2z"/>
			<g>
				<path class="st6" d="M480.3,471.5c-6.9,0-9.4,4.9-9.6,13.9c0,3.4,1.5,6.7,2.7,8.9c0.9,1.6,1.2,3.5,0.6,5.2l-1.5,5.1
					c-1,4.7,1.2,7.3,4.5,8.3c1.6,0.5,3.6,0.1,5-0.8c1.7-1.1,1.8-3.5,1.5-5.5l-0.4-1.5c-0.5-2,0.6-4.1,2.6-4.5
					c5.3-1.2,6-6.7,7.5-15.2C494.9,476.5,487.2,471.5,480.3,471.5z"/>
				<path class="st3" d="M496.3,467.5l-3.9,1.2c-1.4,0.4-3,0.4-4.4,0l-7.9-2.3c-4.8,0-12.6,2.7-11.6,9.6l0.9,4.9
					c0.4,1.9,2,3.4,3.9,3.6l0,0c0.2,0.7,0.8,1.1,1.5,1.1c0.9,0,1.5-0.7,1.5-1.5l0,0c0-2.2,1.5-4.1,3.7-4.5c2.6-0.6,5.4-0.7,8.4,0.1
					c5.5,1.5,11.2-1.9,11.8-7.5c0-0.4,0.1-0.7,0.1-1.1C500.2,468.6,498.3,467,496.3,467.5z"/>
				<path class="st6" d="M474.6,485.6c0,2.1-0.8,3.8-2.8,3.8s-3.3-2.9-3.3-5s1.3-2.6,3.3-2.6C473.8,481.8,474.6,483.5,474.6,485.6z"
					/>
			</g>
		</g>
		<path class="st8" d="M473.7,494.8c0,0,5.1,7.1,11.5,6.1c0,0-1.3,0.6-1.6,1.7C483.6,502.5,477.5,502.1,473.7,494.8z"/>
	</g>
	<path class="st6" d="M507.8,523.6c-2.1,1.7-4.3,3.2-5.1,4c-0.3,0.3-0.9,1.4-1.1,1.7c-0.6,0.9-1.3,2.4-2.2,2.9l-4,2.1
		c-1.9,1-2.9,2.7-2,4.6l0,0c1.1,2.1,3.3,2.2,5.3,0.9l2.8-1.4c1.6-1,3.5-1.3,5.3-1.6c3.8-0.6,7.2-3.4,9.8-5.9
		c1.6-1.6,1.5-4.6,1.3-8.6c-0.1-2-1-5-2.4-2.9c-1.2,1.7-1.2,7.8-7.1,8.9c-0.3,0.1-1,0.1-1.2-0.2c-0.5-1,1.5-2.2,2.3-3.2
		c1.1-1.4,1.2-2.7,0.7-3.3C509.9,521.1,509.3,522.3,507.8,523.6z"/>
	<path class="st5" d="M465.4,633.3c0,0,4.7,35.7-6.6,35.4c-11.2-0.3-74.3-1.5-74.3-1.5l6.4-11.5c0,0,39.1-0.4,46.5-4.7
		s4.4-35.2,4.4-35.2L465.4,633.3z"/>
	<path class="st5" d="M463.7,504.6c0,0-11,12.4-16.7,22.8c-5.6,10.3-20.7,48.6,4.7,47.6c25.4-1,46.9-15.7,46.9-15.7l-4.1-7.8
		c0,0-25.3,10.6-36.4,9.7S463.7,504.6,463.7,504.6z"/>
	<g>
		<path class="st9" d="M509.8,517.8c0.3,0.8,0.1,1.6-0.5,1.8l-5.2,1.8c-0.5,0.2-1.2-0.3-1.5-1.1l-3.3-9.5c-0.3-0.8-0.1-1.6,0.5-1.8
			l5.2-1.8c0.5-0.2,1.2,0.3,1.5,1.1L509.8,517.8z"/>
		<path class="st9" d="M519.8,527c0,0.7-0.5,1.3-1,1.3h-12.6c-0.6,0-1-0.6-1-1.3v-5.6c0-0.7,0.5-1.3,1-1.3h12.6c0.6,0,1,0.6,1,1.3
			V527z"/>
	</g>
	<path class="st5" d="M510.8,667.2c0,0-2,5.5,3.4,5.9c5.5,0.4,21.7,3.2,12.9,6.1c-8.8,2.9-19.7,1.9-24,1.3
		c-4.3-0.6-2.9-13.3-2.9-13.3H510.8z"/>
	<path class="st5" d="M389.7,658c0,0-5.7-2.9-8.9-1.6s-12.1,18.4-8.2,19.1s9.7-11,13.5-11.2S389.7,658,389.7,658z"/>
	<path class="st10" d="M588.7,436.1c0,0,4.4-2.4,6.5-6.8c0,0-4.2,9.1-6.1,9.8l-1.4-2.4L588.7,436.1z"/>
	<g>
		<path class="st11" d="M565.1,459.2"/>
	</g>
	<g>
		<path class="st11" d="M591.5,449.3"/>
	</g>
	<path class="st0" d="M615.4,447.3c-1.8,8.5-4.2,16.5-7.5,24.6c-1.7,4-3.7,8-6.7,11.9c-0.8,1-1.7,1.9-2.8,2.8s-2.5,1.8-4.2,2.3
		s-3.8,0.5-5.5-0.1s-3-1.5-4-2.5c-2-1.9-3.3-4-4.4-6c-1.1-2-2-4-2.7-6.1c-1.6-4.1-2.7-8.1-3.7-12.2c-2-8.2-3.4-16.4-4.6-24.7
		c-0.1-0.8,0.4-1.5,1.2-1.6c0.7-0.1,1.4,0.4,1.6,1l0,0c2.2,8,4.5,15.9,7.2,23.6c1.4,3.8,2.9,7.6,4.5,11.2c0.8,1.8,1.8,3.5,2.8,5.1
		c1,1.5,2.1,3,3.2,3.8c0.5,0.4,1,0.7,1.3,0.7s0.4,0,0.6-0.1c0.3-0.1,0.7-0.4,1.2-0.8c0.5-0.5,1-1.1,1.5-1.7
		c1.9-2.8,3.5-6.4,4.9-10.1s2.5-7.5,3.6-11.4s2-7.9,2.8-11.7v-0.1c0.6-2.7,3.2-4.4,5.9-3.8C614.3,441.9,616,444.6,615.4,447.3z"/>
	<path class="st0" d="M572.7,440.5c0,0,0-0.1,0-0.2c0-1.1-0.2-6.3,1-8c1.4-1.9,2.3-5.1-0.3-4.7c-2.5,0.4-5.9,3.4-5.5,7.4
		c0.3,4,3.9,9.4,3.9,9.4L572.7,440.5z"/>
	<path class="st0" d="M569.1,437.3c0,0,0-0.1,0-0.2c0-1.1-0.2-6.3,1-8c1.4-1.9,2.3-5.1-0.3-4.7c-2.5,0.4-5.9,3.4-5.5,7.4
		c0.3,4,3.9,9.4,3.9,9.4L569.1,437.3z"/>
	<path class="st4" d="M479.5,516.3c0,0-6.6-5.8-8.2-3.5c-1.5,2.3-2.3,12-2.3,12L479.5,516.3z"/>
	<path class="st4" d="M479,516.7c0,0,7,6.4,8.9,4.7c2-1.8-1.5-11.2-1.5-11.2l-6.9,6.3L479,516.7z"/>
	<ellipse class="st12" cx="478.3" cy="528.3" rx="0.8" ry="1.1"/>
	<ellipse class="st12" cx="478" cy="538.4" rx="1" ry="1.3"/>
	<ellipse class="st12" cx="478" cy="551" rx="1" ry="1.4"/>
	<path class="st2" d="M386.9,509.9c0,0-13.3-5.7-13.2-11.3c0.2-5.6,5.4-8.8,10-5.8c4.3-5.4,11.5-4.3,11.7,1.4
		C395.6,500,386.9,509.9,386.9,509.9z"/>
	<path class="st4" d="M386.9,603c0,0-13.3-5.7-13.2-11.3s5.4-8.8,10-5.8c4.3-5.4,11.5-4.3,11.7,1.4C395.6,593.1,386.9,603,386.9,603
		z"/>
	<path class="st4" d="M422.4,466.3c0,0-10.9-4.6-10.8-9.2s4.4-7.2,8.2-4.7c3.6-4.4,9.4-3.5,9.6,1.1
		C429.5,458.2,422.4,466.3,422.4,466.3z"/>
	<path class="st4" d="M672.1,601.7c0,0-10.9-4.6-10.8-9.2s4.4-7.2,8.2-4.7c3.6-4.4,9.4-3.5,9.6,1.1
		C679.3,593.6,672.1,601.7,672.1,601.7z"/>
	<path class="st2" d="M663.7,515.4c0,0-13.3-5.7-13.2-11.3c0.2-5.6,5.4-8.8,10-5.8c4.3-5.4,11.5-4.3,11.7,1.4
		C672.4,505.5,663.7,515.4,663.7,515.4z"/>
	<path class="st4" d="M674.1,469.7c0,0-10.9-4.6-10.8-9.2c0.1-4.6,4.4-7.2,8.2-4.7c3.6-4.4,9.4-3.5,9.6,1.1
		C681.3,461.6,674.1,469.7,674.1,469.7z"/>
	<path class="st13" d="M763.3,681.2c0,0,31.7-66.8,63.3-73c0,0-9.2-10.5-36.8-6.5S734.7,669.4,763.3,681.2z"/>
	<path class="st14" d="M762.8,681.2c0,0,7.6-73.6,35.4-89.9c0,0-12.2-6.8-36.8,6.1C736.7,610.3,731.9,679.6,762.8,681.2z"/>
	<path class="st13" d="M297.1,681.2c0,0-31.7-66.8-63.3-73c0,0,9.2-10.5,36.8-6.5S325.7,669.4,297.1,681.2z"/>
	<path class="st14" d="M297.6,681.2c0,0-7.6-73.6-35.4-89.9c0,0,12.2-6.8,36.8,6.1C323.7,610.3,328.5,679.6,297.6,681.2z"/>
</g>
</svg>
